<svg aria-hidden="true" style="position: absolute; width: 0; height: 0; overflow: hidden;" version="1.1" xmlns="http://www.w3.org/2000/svg" xmlns:xlink="http://www.w3.org/1999/xlink">
<defs>
<symbol id="icon-Logo_logIn" viewBox="0 0 38 32">
<title>Logo_logIn</title>
<path fill="#181c25" style="fill: var(--color1, #181c25)" d="M0 11.601l19.093-11.601 19.093 11.601-19.093 11.601-19.093-11.601zM6.854 11.877l12.239 7.458 12.239-7.458-12.239-7.458-12.239 7.458z"></path>
<path fill="#a7b2dd" style="fill: var(--color2, #a7b2dd)" d="M0 19.985l3.42-2.078 15.673 9.512 15.775-9.45 3.318 2.016-19.093 11.601z"></path>
</symbol>
<symbol id="icon-Open" viewBox="0 0 32 32">
<title>Open</title>
<path d="M28.034 26.998h-23.579v-23.579h10.105v-3.368h-10.105c-1.869 0-3.368 1.516-3.368 3.368v23.579c0 1.853 1.499 3.368 3.368 3.368h23.579c1.853 0 3.368-1.516 3.368-3.368v-10.105h-3.368v10.105zM19.613 0.051v3.368h6.046l-16.556 16.556 2.375 2.375 16.556-16.556v6.046h3.368v-11.789h-11.789z"></path>
</symbol>
<symbol id="icon-Account" viewBox="0 0 32 32">
<title>Account</title>
<path d="M16 0c-8.823 0-16 7.177-16 16s7.177 16 16 16c8.823 0 16-7.177 16-16s-7.177-16-16-16zM16 29.333c-3.591 0-6.848-1.433-9.248-3.751 0.397-2.545 2.235-3.529 4.581-4.311 1.577-0.525 2.259-1.916 2.559-3.041-1.896-0.819-3.225-2.701-3.225-4.897v-1.333c0-2.945 2.388-5.333 5.333-5.333s5.333 2.388 5.333 5.333v1.333c0 2.196-1.329 4.079-3.225 4.897 0.303 1.128 0.988 2.519 2.559 3.041 2.349 0.783 4.188 1.736 4.583 4.311-2.4 2.317-5.659 3.751-9.249 3.751z"></path>
</symbol>
<symbol id="icon-Logo_Cloud" viewBox="0 0 115 32">
<title>Logo_Cloud</title>
<path fill="#181c25" style="fill: var(--color1, #181c25)" d="M0.227 13.72l17.183-10.427 17.183 10.427-17.183 10.427-17.183-10.427zM6.395 13.968l11.015 6.703 11.015-6.703-11.015-6.703-11.015 6.703z"></path>
<path fill="#a7b2dd" style="fill: var(--color2, #a7b2dd)" d="M0.227 21.041l3.078-1.834 14.105 8.396 14.197-8.341 2.986 1.78-17.183 10.239z"></path>
<path fill="#181c25" style="fill: var(--color1, #181c25)" d="M91.172 12.651c-0.578-0.226-1.256 0.050-1.482 0.627l-3.265 7.899-3.24-7.824c-0.251-0.627-0.829-0.903-1.457-0.728-0.603 0.176-1.109 0.903-0.908 1.48l4.349 9.955-1.859 4.564c-0.226 0.577 0 1.229 0.553 1.48 0.603 0.225 1.255-0.050 1.481-0.627l6.43-15.347c0.251-0.577 0-1.254-0.603-1.48zM78.106 12.701h-7.786c-0.603 0-1.105 0.476-1.105 1.103 0 0.602 0.502 1.079 1.105 1.079h5.601l-6.556 7.173c-0.376 0.426-0.552 0.777-0.552 1.229v0.050c0 0.602 0.552 1.079 1.28 1.079h8.188c0.603 0 1.104-0.477 1.104-1.079 0-0.626-0.502-1.103-1.104-1.103h-6.128l6.681-7.172c0.376-0.426 0.551-0.778 0.551-1.229v-0.050c0-0.601-0.551-1.078-1.28-1.078zM65.949 12.575c-0.628 0-1.13 0.527-1.13 1.153v9.655c0 0.627 0.502 1.153 1.13 1.153 0.653 0 1.155-0.526 1.155-1.153v-9.655c0-0.626-0.502-1.153-1.155-1.153zM61.661 12.45c-1.532 0-2.662 0.828-3.265 2.884v-1.605c0-0.626-0.502-1.153-1.155-1.153-0.628 0-1.13 0.527-1.13 1.153v9.655c0 0.627 0.502 1.153 1.13 1.153 0.653 0 1.155-0.526 1.155-1.153v-3.234c0-3.11 0.954-5.517 3.215-5.517 0.151 0 0.352 0 0.527 0.024 0.804 0.075 1.456-0.075 1.583-0.802 0.2-1.229-1.206-1.404-2.060-1.404zM49.212 22.23h-4.621v-5.868h4.546c1.758 0 2.838 1.655 2.838 3.034 0 1.455-1.055 2.834-2.763 2.834zM44.591 9.291h3.918c1.557 0 2.561 0.877 2.561 2.382 0 1.404-0.779 2.634-2.311 2.634h-4.169v-5.015zM51.272 15.209c1.633-0.627 2.185-2.157 2.185-3.611 0-2.734-1.809-4.464-4.697-4.464h-5.55c-0.527 0-0.98 0.451-0.98 1.003v15.272c0 0.55 0.453 1.003 0.98 1.003h6.103c3.189 0 5.074-2.308 5.074-4.991 0-1.73-1.181-3.812-3.115-4.213z"></path>
<path fill="#a7b2dd" style="fill: var(--color2, #a7b2dd)" d="M92.237 0.89v1.030c-0.532-0.272-1.381-0.611-2.422-0.611-1.856 0-3.191 1.358-3.191 3.203s1.335 3.203 3.191 3.203c1.098 0 1.947-0.328 2.478-0.6v1.030c-0.272 0.158-1.188 0.577-2.478 0.577-2.467 0-4.289-1.788-4.289-4.21s1.822-4.21 4.289-4.21c1.234 0 2.15 0.43 2.422 0.589zM93.27 7.137v-6.7h1.052v6.485c0 0.611 0.192 0.86 0.656 0.86 0.226 0 0.43-0.045 0.498-0.068v0.905c-0.068 0.023-0.351 0.102-0.758 0.102-0.837 0-1.449-0.441-1.449-1.584zM98.818 2.791c1.686 0 2.92 1.256 2.92 2.965s-1.234 2.965-2.92 2.965c-1.675 0-2.909-1.256-2.909-2.965s1.234-2.965 2.909-2.965zM98.818 7.804c1.098 0 1.901-0.849 1.901-2.048s-0.803-2.048-1.901-2.048c-1.086 0-1.89 0.849-1.89 2.048s0.803 2.048 1.89 2.048zM107.784 8.585h-0.985l-0.023-0.792c0-0.238 0.045-0.407 0.045-0.43h-0.023c-0.215 0.509-0.939 1.358-2.105 1.358-1.392 0-1.935-0.826-1.935-2.241v-3.554h1.052v3.339c0 0.781 0.136 1.483 1.075 1.483 1.075 0 1.845-0.883 1.845-2.037v-2.784h1.052v5.659zM114.589 0.437v8.148h-0.973l-0.023-0.668c0-0.249 0.034-0.419 0.034-0.419h-0.023c-0.294 0.634-1.086 1.222-2.003 1.222-1.494 0-2.626-1.211-2.626-2.965 0-1.777 1.132-2.965 2.603-2.965 0.917 0 1.664 0.498 1.969 1.030h0.023c0 0-0.034-0.17-0.034-0.464v-2.92h1.052zM111.748 3.708c-1.052 0-1.754 0.849-1.754 2.048 0 1.177 0.702 2.048 1.754 2.048 0.849 0 1.777-0.634 1.777-2.048s-0.928-2.048-1.777-2.048z"></path>
</symbol>
<symbol id="icon-Search" viewBox="0 0 34 32">
<title>Search</title>
<path fill="#a7b2dd" style="fill: var(--color2, #a7b2dd)" d="M26.797 22.46c1.8-2.385 2.8-5.168 2.8-8.348 0-7.752-6.2-14.112-14-14.112s-14.2 6.36-14.2 14.112c0 7.752 6.4 14.112 14.2 14.112 3.2 0 6.2-0.994 8.4-2.783l6 5.963c0.4 0.398 1 0.596 1.4 0.596s1-0.199 1.4-0.596c0.8-0.795 0.8-1.988 0-2.783l-6-6.162zM15.597 24.050c-5.6 0-10.2-4.373-10.2-9.938s4.6-10.137 10.2-10.137c5.6 0 10.2 4.571 10.2 10.137s-4.6 9.938-10.2 9.938z"></path>
</symbol>
<symbol id="icon-Sign_Out" viewBox="0 0 30 32">
<title>Sign_Out</title>
<path fill="#a7b2dd" style="fill: var(--color2, #a7b2dd)" d="M20 24.828l8.828-8.828-8.828-8.828-2.828 2.828 4 4h-13.172v4h13.172l-4 4 2.828 2.828zM22 28h-18v-24h18v-4h-20c-1.104 0-2 0.896-2 2v28c0 1.104 0.896 2 2 2h20v-4z"></path>
</symbol>
</defs>
</svg>
